<?xml version="1.0" encoding="utf-8"?>
<!-- Generator: Adobe Illustrator 24.0.1, SVG Export Plug-In . SVG Version: 6.00 Build 0)  -->
<svg version="1.1" id="Laag_1" xmlns="http://www.w3.org/2000/svg" xmlns:xlink="http://www.w3.org/1999/xlink" x="0px" y="0px"
	 width="23px" height="22px" viewBox="0 0 23 22" style="enable-background:new 0 0 23 22;" xml:space="preserve">
<style type="text/css">
	.st0{fill:#50CCB7;}
</style>
<path class="st0" d="M5,22H0V7h5V22z M2.5,5C1.1,5,0,3.9,0,2.5S1.1,0,2.5,0C3.9,0,5,1.1,5,2.5C5,3.9,3.9,5,2.5,5z M23,22h-4.8v-7.3
	c0-1.7,0-4-2.5-4c-2.5,0-2.9,1.9-2.9,3.9V22H8V7h4.6V9h0.1c0.6-1.2,2.2-2.4,4.6-2.4c4.9,0,5.8,3.1,5.8,7.2C23,13.8,23,22,23,22z"/>
</svg>
