<?xml version="1.0" encoding="utf-8"?>
<!-- Generator: Adobe Illustrator 24.0.1, SVG Export Plug-In . SVG Version: 6.00 Build 0)  -->
<svg version="1.1" id="Laag_1" xmlns="http://www.w3.org/2000/svg" xmlns:xlink="http://www.w3.org/1999/xlink" x="0px" y="0px"
	 width="35px" height="46.1px" viewBox="0 0 35 46.1" style="enable-background:new 0 0 35 46.1;" xml:space="preserve">
<style type="text/css">
	.st0{fill-rule:evenodd;clip-rule:evenodd;fill:#50CCB7;}
</style>
<path class="st0" d="M31.9,0l-3.1,0.5l3.3,18.2l2.8-0.4L31.9,0z M21,4.5l-2.9,1.7l10.2,15l2.5-1.6L21,4.5z M11.8,13.1l-1.7,2.7
	l15.4,9.3l1.4-2.4L11.8,13.1z M7.4,22.5l-0.7,3L24.4,30l0.3-2.7L7.4,22.5z M0,27.1v19l29.9,0v0c0,0,0.1-19,0.1-19h-3v16H3v-16H0z
	 M6.2,30.5l-0.3,3L24,35.1l0.2-2.5L6.2,30.5z M5.9,37.1l0.1,3L24,40v-2.9H5.9z"/>
</svg>
